inDegrees=yes
name=ik_lifting_orientations
DataType=double
version=3
OpenSimVersion=4.5-2024-01-10-34fd6af
endheader
time	pelvis_tilt	pelvis_list	pelvis_rotation	pelvis_tx	pelvis_ty	pelvis_tz	hip_flexion_r	hip_adduction_r	hip_rotation_r	knee_angle_r	knee_angle_r_beta	ankle_angle_r	subtalar_angle_r	mtp_angle_r	hip_flexion_l	hip_adduction_l	hip_rotation_l	knee_angle_l	knee_angle_l_beta	ankle_angle_l	subtalar_angle_l	mtp_angle_l	lumbar_extension	lumbar_bending	lumbar_rotation	arm_flex_r	arm_add_r	arm_rot_r	elbow_flex_r	pro_sup_r	wrist_flex_r	wrist_dev_r	arm_flex_l	arm_add_l	arm_rot_l	elbow_flex_l	pro_sup_l	wrist_flex_l	wrist_dev_l
2.3	-2.582234310467621	-1.952827492602418	-106.1054256936244	0	0.9399999998679526	0	44.67877780174128	-10.15164275538828	0	59.73237544107747	1.042526621484202	-5.035691650192127	0	0	44.67877780174128	-10.15164275538828	0	59.73237544107747	1.042526621484202	-5.035691650192127	0	0	-4.227753001917223	2.903302650094662	11.08623153131632	76.77834771265938	-1.877939232391394	71.15519371678099	101.1877268595632	2.163826134293824	0	0	0	-11.03639316299877	0	87.87171948500962	2.163826134293824	0	0
2.31	-2.735665834281507	-2.056986612127711	-106.2714581462321	0	0.9399999998679526	0	44.67891207665299	-10.15142436981032	0	59.73246426451116	1.042528171745573	-5.035624788457489	0	0	44.67891207665299	-10.15142436981032	0	59.73246426451116	1.042528171745573	-5.035624788457489	0	0	-4.615127779552798	3.153514615346983	11.36399002783225	77.01071295721501	-1.270517464215655	71.40984487106486	99.38610523447231	2.163193783726901	0	0	0	-11.03724924660934	0	87.87234138664792	2.163193783726901	0	0
2.32	-2.710312277392557	-2.024168974477702	-106.1731628926399	0	0.9399999998679526	0	44.67900182660724	-10.15127949348575	0	59.73252395122456	1.042529213475241	-5.035580505964889	0	0	44.67900182660724	-10.15127949348575	0	59.73252395122456	1.042529213475241	-5.035580505964889	0	0	-4.792983984973359	3.293757036844011	11.39193072352737	77.22302754245607	-0.6956102128183759	71.65822590853388	97.60994196872538	2.162770213378753	0	0	0	-11.03782370231117	0	87.87275795802528	2.162770213378753	0	0
2.33	-2.687613136596294	-2.016692731925999	-106.0458862216478	0	0.9399999998679526	0	44.6791104718171	-10.15110141412396	0	59.73259529523863	1.042530458663188	-5.035525922948461	0	0	44.6791104718171	-10.15110141412396	0	59.73259529523863	1.042530458663188	-5.035525922948461	0	0	-5.239659328013983	3.544128345039479	11.66057929788104	77.58282575573847	-0.6160512894725799	72.00112041534612	94.9610263930516	2.162259936021074	0	0	0	-11.03851291606933	0	87.87325980346213	2.162259936021074	0	0
2.34	-2.559317174421014	-1.94246605834965	-105.7742520243041	0	0.9399999998679526	0	44.67922511948239	-10.15091276732322	0	59.73267030768564	1.042531767877369	-5.035468067888649	0	0	44.67922511948239	-10.15091276732322	0	59.73267030768564	1.042531767877369	-5.035468067888649	0	0	-5.592023670679914	3.733149248030109	11.85649594633569	77.46445890033374	-3.054188814256496	72.21368597018215	96.35581038768927	2.161722182034989	0	0	0	-11.03923840708579	0	87.87378867143426	2.161722182034989	0	0
2.35	-2.379468894363141	-1.822273673056438	-105.342059311441	0	0.9399999998679526	0	44.67933808579732	-10.15072714656154	0	59.73274425643297	1.042533058526487	-5.035411167874421	0	0	44.67933808579732	-10.15072714656154	0	59.73274425643297	1.042533058526487	-5.035411167874421	0	0	-5.876008369236725	3.908254875403905	11.9264643237852	77.35790374175184	-5.52880421347274	72.40648103208136	97.75264941920955	2.161192173090475	0	0	0	-11.03995359234897	0	87.87430992236068	2.161192173090475	0	0
2.36	-2.229213258379513	-1.74940629148244	-104.8303294167146	0	0.9399999998679526	0	44.68030931308788	-10.14959153421095	0	59.73354062883318	1.042546957846943	-5.035088031240823	0	0	44.68030931308788	-10.14959153421095	0	59.73354062883318	1.042546957846943	-5.035088031240823	0	0	-6.100764022277176	4.120948350829686	9.364757629704576	77.06952970331153	-6.297327262039571	73.06164988782768	100.6926487056598	2.156206298969471	0	0	0	-11.04718095021197	0	87.87921344838266	2.156206298969471	0	0
2.37	-2.169700116223495	-1.662396895941393	-104.5376777951527	0	0.9399999998679526	0	44.68040793653024	-10.14943044882666	0	59.73360522829583	1.042548085320261	-5.035038755082883	0	0	44.68040793653024	-10.14943044882666	0	59.73360522829583	1.042548085320261	-5.035038755082883	0	0	-6.127365910063225	4.27567971095993	8.428152606964176	77.10463554147026	-5.204638848196049	73.40998542163418	98.81228829077233	2.155743114432831	0	0	0	-11.04780640244758	0	87.87966897918636	2.155743114432831	0	0
